Plot

Set in a small town in the backwoods of Kentucky, RED RIVER tells the tale of Roland Thatcher: a
family man, a business man, a man of God...and a man who doesn't take kindly to strangers. When a group
of city kids sets up camp on the outskirts of his property, they spark a chain of events culminating in
bloodshed, dismemberment and mass murder. As a local, fledgling reporter inches closer to the Thatcher
property, the shocking truth about Roland and his 'family' may finally emerge...
 
http://www.imdb.com/title/tt1498568/


Cast

Dustin Roe ... Wes
Ronica Jones ... Tammera
Levi Brandenburg ... Cliff
Megan Marie Wilson ... Natisha
George Robert Bailey ... Ranger Blackwell
Sonny Burnette ... Preacher
 
http://leetleech.org/images/27408686386260315251.png
 
http://leetleech.org/images/54887994787045049430.png
 
http://leetleech.org/images/36403687665181931692.png
 
http://leetleech.org/images/34060705271083168487.png
 
http://leetleech.org/images/68622992425555833737.png

General
Complete name : Red River 2011 DVDRip Xvid BigPerm LKRG\RR_LKRG.avi
Format : AVI
Format/Info : Audio Video Interleave
File size : 1.40 GiB
Duration : 1h 17mn
Overall bit rate : 2 590 Kbps

Video
ID : 0
Format : MPEG-4 Visual
Format profile : Advanced Simple@L5
Format settings, BVOP : Yes
Format settings, QPel : No
Format settings, GMC : No warppoints
Format settings, Matrix : Default (H.263)
Muxing mode : Packed bitstream
Codec ID : XVID
Codec ID/Hint : XviD
Duration : 1h 17mn
Bit rate : 2 322 Kbps
Width : 640 pixels
Height : 270 pixels
Display aspect ratio : 2.35:1
Frame rate : 29.970 fps
Color space : YUV
Chroma subsampling : 4:2:0
Bit depth : 8 bits
Scan type : Progressive
Compression mode : Lossy
Bits/(Pixel*Frame) : 0.448
Stream size : 1.26 GiB (90%)
Writing library : XviD 1.2.1 (UTC 2008-12-04)

Audio
ID : 1
Format : AC-3
Format/Info : Audio Coding 3
Mode extension : CM (complete main)
Codec ID : 2000
Duration : 1h 17mn
Bit rate mode : Constant
Bit rate : 256 Kbps
Channel(s) : 2 channels
Channel positions : Front: L R
Sampling rate : 48.0 KHz
Bit depth : 16 bits
Compression mode : Lossy
Stream size : 142 MiB (10%)
Alignment : Aligned on interleaves
Interleave, duration : 33 ms (1.00 video frame)
Interleave, preload duration : 512 ms
Language : English

